<svg width="1728" height="1117" viewBox="0 0 1728 1117" fill="none" xmlns="http://www.w3.org/2000/svg">
<mask id="mask0_377_624" style="mask-type:alpha" maskUnits="userSpaceOnUse" x="0" y="0" width="1728" height="1117">
<rect width="1728" height="1117" fill="#D9D9D9"/>
</mask>
<g mask="url(#mask0_377_624)">
<g opacity="0.3">
<path fill-rule="evenodd" clip-rule="evenodd" d="M221.893 676.378C121.529 713.216 112.593 915.096 6.16034 904.906C-92.0697 895.502 -78.505 733.189 -120.053 643.64C-147.517 584.446 -167.31 526.084 -196.646 467.794C-240.855 379.955 -362.657 309.212 -335.999 214.571C-310.492 124.017 -165.551 144.573 -89.8717 88.7289C-10.84 30.4114 18.4086 -90.1526 112.962 -116.717C210.521 -144.126 343.866 -131.984 403.239 -49.8099C468.087 39.9413 367.132 168.776 396.403 275.569C416.879 350.278 520.324 376.944 540.69 451.684C564.561 539.289 590.999 665.186 516.814 717.473C434.011 775.834 316.989 641.474 221.893 676.378Z" fill="#9A78E3"/>
<path fill-rule="evenodd" clip-rule="evenodd" d="M660.768 79.8066C700.382 129.522 742.645 172.335 778.967 224.508C821.251 285.245 871.371 339.521 891.229 410.84C918.04 507.131 978.337 628.687 912.454 703.924C845.322 780.587 713.294 704.401 614.067 727.353C530.189 746.755 466.433 839.514 381.319 826.778C295.893 813.995 253.644 718.365 186.987 663.446C108.939 599.141 -10.3062 571.764 -43.9876 476.365C-77.9079 380.289 -30.2044 273.249 17.3944 183.091C61.9193 98.7554 140.437 43.607 215.519 -15.1718C294.175 -76.7486 368.466 -188.99 466.079 -168.168C570.977 -145.792 593.926 -4.08131 660.768 79.8066Z" fill="#5207F3"/>
</g>
</g>
</svg>
