<svg width="38" height="38" viewBox="0 0 38 38" fill="none" xmlns="http://www.w3.org/2000/svg">
<g clip-path="url(#clip0_64_132)">
<path d="M19 30.0833C19.42 30.0833 19.8227 30.2501 20.1196 30.547C20.4166 30.844 20.5834 31.2467 20.5834 31.6666V33.25C20.5834 33.6699 20.4166 34.0726 20.1196 34.3695C19.8227 34.6665 19.42 34.8333 19 34.8333C18.5801 34.8333 18.1774 34.6665 17.8804 34.3695C17.5835 34.0726 17.4167 33.6699 17.4167 33.25V31.6666C17.4167 31.2467 17.5835 30.844 17.8804 30.547C18.1774 30.2501 18.5801 30.0833 19 30.0833ZM29.0764 26.8375L30.1958 27.9569C30.4842 28.2555 30.6438 28.6554 30.6402 29.0706C30.6366 29.4857 30.4701 29.8829 30.1765 30.1764C29.8829 30.47 29.4858 30.6365 29.0707 30.6401C28.6555 30.6437 28.2556 30.4841 27.957 30.1957L26.8375 29.0763C26.5491 28.7777 26.3895 28.3777 26.3931 27.9626C26.3967 27.5474 26.5633 27.1503 26.8568 26.8567C27.1504 26.5632 27.5475 26.3967 27.9626 26.3931C28.3778 26.3895 28.7777 26.549 29.0764 26.8375ZM8.9237 26.8375C9.20864 26.5535 9.59097 26.3886 9.99306 26.3763C10.3951 26.3641 10.7868 26.5053 11.0886 26.7714C11.3903 27.0374 11.5794 27.4083 11.6176 27.8088C11.6557 28.2093 11.54 28.6092 11.294 28.9275L11.1625 29.0763L10.0431 30.1957C9.75819 30.4797 9.37585 30.6445 8.97376 30.6568C8.57168 30.6691 8.17999 30.5279 7.87826 30.2618C7.57653 29.9958 7.38739 29.6248 7.34924 29.2244C7.31109 28.8239 7.4268 28.4239 7.67287 28.1057L7.80429 27.9569L8.9237 26.8375ZM19 9.49996C21.5196 9.49996 23.936 10.5008 25.7176 12.2824C27.4991 14.064 28.5 16.4804 28.5 19C28.5 21.5195 27.4991 23.9359 25.7176 25.7175C23.936 27.4991 21.5196 28.5 19 28.5C16.4805 28.5 14.0641 27.4991 12.2825 25.7175C10.5009 23.9359 9.50004 21.5195 9.50004 19C9.50004 16.4804 10.5009 14.064 12.2825 12.2824C14.0641 10.5008 16.4805 9.49996 19 9.49996ZM19 12.6666C17.3203 12.6666 15.7094 13.3339 14.5217 14.5216C13.334 15.7093 12.6667 17.3203 12.6667 19C12.6667 20.6797 13.334 22.2906 14.5217 23.4783C15.7094 24.666 17.3203 25.3333 19 25.3333C20.6797 25.3333 22.2906 24.666 23.4784 23.4783C24.6661 22.2906 25.3334 20.6797 25.3334 19C25.3334 17.3203 24.6661 15.7093 23.4784 14.5216C22.2906 13.3339 20.6797 12.6666 19 12.6666ZM6.33337 17.4166C6.73693 17.4171 7.12509 17.5716 7.41854 17.8486C7.71199 18.1257 7.88857 18.5043 7.91222 18.9072C7.93587 19.31 7.8048 19.7067 7.54578 20.0162C7.28677 20.3257 6.91935 20.5245 6.51862 20.5722L6.33337 20.5833H4.75004C4.34648 20.5828 3.95832 20.4283 3.66487 20.1513C3.37142 19.8742 3.19483 19.4956 3.17118 19.0927C3.14753 18.6899 3.2786 18.2932 3.53762 17.9837C3.79664 17.6743 4.16405 17.4754 4.56479 17.4277L4.75004 17.4166H6.33337ZM33.25 17.4166C33.67 17.4166 34.0727 17.5834 34.3696 17.8804C34.6666 18.1773 34.8334 18.58 34.8334 19C34.8334 19.4199 34.6666 19.8226 34.3696 20.1195C34.0727 20.4165 33.67 20.5833 33.25 20.5833H31.6667C31.2468 20.5833 30.844 20.4165 30.5471 20.1195C30.2502 19.8226 30.0834 19.4199 30.0834 19C30.0834 18.58 30.2502 18.1773 30.5471 17.8804C30.844 17.5834 31.2468 17.4166 31.6667 17.4166H33.25ZM7.80429 7.80421C8.07692 7.5316 8.43967 7.36783 8.82446 7.34364C9.20925 7.31944 9.58965 7.43648 9.89429 7.67279L10.0431 7.80421L11.1625 8.92363C11.4465 9.20856 11.6114 9.5909 11.6236 9.99298C11.6359 10.3951 11.4947 10.7868 11.2286 11.0885C10.9626 11.3902 10.5917 11.5794 10.1912 11.6175C9.79074 11.6557 9.39077 11.5399 9.07254 11.2939L8.9237 11.1625L7.80429 10.043C7.50746 9.74612 7.34071 9.34347 7.34071 8.92363C7.34071 8.50378 7.50746 8.10113 7.80429 7.80421ZM30.1958 7.80421C30.4926 8.10113 30.6594 8.50378 30.6594 8.92363C30.6594 9.34347 30.4926 9.74612 30.1958 10.043L29.0764 11.1625C28.9303 11.3137 28.7556 11.4343 28.5624 11.5173C28.3693 11.6003 28.1615 11.6439 27.9513 11.6458C27.741 11.6476 27.5325 11.6075 27.3379 11.5279C27.1434 11.4483 26.9666 11.3307 26.8179 11.1821C26.6692 11.0334 26.5517 10.8566 26.4721 10.6621C26.3925 10.4675 26.3524 10.259 26.3542 10.0487C26.356 9.83851 26.3997 9.63074 26.4827 9.43757C26.5657 9.2444 26.6863 9.06968 26.8375 8.92363L27.957 7.80421C28.2539 7.50738 28.6565 7.34063 29.0764 7.34063C29.4962 7.34063 29.8989 7.50738 30.1958 7.80421ZM19 3.16663C19.42 3.16663 19.8227 3.33344 20.1196 3.63037C20.4166 3.92731 20.5834 4.33003 20.5834 4.74996V6.33329C20.5834 6.75322 20.4166 7.15595 20.1196 7.45288C19.8227 7.74981 19.42 7.91663 19 7.91663C18.5801 7.91663 18.1774 7.74981 17.8804 7.45288C17.5835 7.15595 17.4167 6.75322 17.4167 6.33329V4.74996C17.4167 4.33003 17.5835 3.92731 17.8804 3.63037C18.1774 3.33344 18.5801 3.16663 19 3.16663Z" fill="#06020D"/>
</g>
<defs>
<clipPath id="clip0_64_132">
<rect width="38" height="38" fill="white"/>
</clipPath>
</defs>
</svg>
