<svg width="38" height="38" viewBox="0 0 38 38" fill="none" xmlns="http://www.w3.org/2000/svg">
<g clip-path="url(#clip0_64_139)">
<path d="M27.8205 20.7886C27.3381 21.2739 26.7896 21.6928 26.1888 22.0319C25.1359 22.6261 23.956 22.9563 22.75 22.996V23H22.5078L27.8205 20.7886ZM27.8205 20.7886C27.4716 22.5092 26.6238 24.1041 25.364 25.364C23.6761 27.0518 21.3869 28 19 28C16.6131 28 14.3239 27.0518 12.636 25.364C10.9482 23.6761 10 21.3869 10 19C10 16.6131 10.9482 14.3239 12.636 12.636C13.8962 11.3759 15.4915 10.5281 17.2124 10.1793C16.7268 10.6618 16.3076 11.2106 15.9683 11.8117C15.374 12.8644 15.0437 14.0442 15.0041 15.25H15V15.4931C15 15.4954 15 15.4977 15 15.5L27.8205 20.7886ZM15.0042 15.75C15.0674 17.6484 15.8492 19.4558 17.1967 20.8033C18.5442 22.1508 20.3516 22.9326 22.25 22.9958V22.9999L22.492 23C22.4946 23 22.4973 23 22.4999 23L15.0042 15.75ZM15.0042 15.75H15.0001L15 15.5069M15.0042 15.75L15 15.5069M15 15.5069C15 15.5047 15 15.5024 15 15.5001L15 15.5069ZM27.2027 18.3535C26.714 19.1594 26.0263 19.8262 25.2054 20.2897C24.3817 20.7549 23.4519 20.9995 22.506 21C22.5041 21 22.5021 21 22.5001 21H22.5C22.498 21 22.496 21 22.4939 21C21.0374 20.9984 19.6409 20.4191 18.6109 19.3891C17.5806 18.3588 17.0013 16.9618 17 15.5048C17 15.5032 17 15.5016 17 15.5V15.4999C17 15.4983 17 15.4967 17 15.4951C17.0004 14.5488 17.2451 13.6187 17.7104 12.7946C18.1741 11.9735 18.8411 11.2855 19.6474 10.7968C19.6516 10.7942 19.6558 10.7917 19.66 10.7891L19.6603 10.789L19.8744 10.6599L19.8638 10.6423C20.3083 10.2625 20.4456 9.6942 20.3848 9.24263L20.3847 9.24225C20.3194 8.76285 19.9655 8.13928 19.25 8.02014V8H19H18.75V8.00279C12.8735 8.13384 8.13384 12.8735 8.00279 18.75H8V19V19.25H8.00279C8.13384 25.1265 12.8735 29.8662 18.75 29.9972V30H19H19.25V29.9972C25.1265 29.8662 29.8662 25.1265 29.9972 19.25H30V19V18.75H29.9799C29.8607 18.0345 29.2372 17.6806 28.7578 17.6153L28.7574 17.6152C28.3058 17.5544 27.7375 17.6917 27.3576 18.1363L27.34 18.1256L27.211 18.3397L27.2109 18.34C27.2081 18.3445 27.2054 18.349 27.2027 18.3535Z" fill="#06020D" stroke="#06020D" stroke-width="0.5"/>
</g>
<defs>
<clipPath id="clip0_64_139">
<rect width="24" height="24" fill="white" transform="translate(7 7)"/>
</clipPath>
</defs>
</svg>
